<svg width="44" height="44" viewBox="0 0 44 44" fill="none" xmlns="http://www.w3.org/2000/svg">
<g clip-path="url(#clip0_37_4)">
<path d="M44 16.7612H41.8962V23.045H44V16.7612Z" fill="#E5FFB8"/>
<path d="M41.8963 23.0449H39.8063V27.2387H41.8963V23.0449Z" fill="#E5FFB8"/>
<path d="M41.8963 14.6711H37.7025V16.7611H41.8963V14.6711Z" fill="#E5FFB8"/>
<path d="M39.8063 27.2388H37.7025V29.3288H39.8063V27.2388Z" fill="#E5FFB8"/>
<path d="M37.7025 39.8062H35.6125V41.9099H37.7025V39.8062Z" fill="#E5FFB8"/>
<path d="M35.6125 18.8511H37.7025V16.7611H35.6125V14.6711H33.5225V31.4324H37.7025V29.3286H35.6125V18.8511Z" fill="#E5FFB8"/>
<path d="M35.6125 41.9099H2.09003V43.9999H35.6125V41.9099Z" fill="#E5FFB8"/>
<path d="M33.5225 31.4326H31.4188V35.6264H33.5225V31.4326Z" fill="#E5FFB8"/>
<path d="M29.3288 37.7162H8.37378V35.6262H6.28378V37.7162H2.09003V39.8062H35.6125V37.7162H31.4188V35.6262H29.3288V37.7162Z" fill="#E5FFB8"/>
<path d="M27.2388 6.28369H25.135V8.38744H27.2388V6.28369Z" fill="#E5FFB8"/>
<path d="M25.135 8.38745H23.045V10.4775H25.135V8.38745Z" fill="#E5FFB8"/>
<path d="M25.135 4.19385H23.045V6.28385H25.135V4.19385Z" fill="#E5FFB8"/>
<path d="M25.135 0H23.045V2.09H25.135V0Z" fill="#E5FFB8"/>
<path d="M23.045 2.09009H20.9412V4.19384H23.045V2.09009Z" fill="#E5FFB8"/>
<path d="M18.8512 6.28369H16.7612V8.38744H18.8512V6.28369Z" fill="#E5FFB8"/>
<path d="M16.7612 8.38745H14.6575V10.4775H16.7612V8.38745Z" fill="#E5FFB8"/>
<path d="M16.7612 4.19385H14.6575V6.28385H16.7612V4.19385Z" fill="#E5FFB8"/>
<path d="M16.7612 0H14.6575V2.09H16.7612V0Z" fill="#E5FFB8"/>
<path d="M14.6575 2.09009H12.5675V4.19384H14.6575V2.09009Z" fill="#E5FFB8"/>
<path d="M10.4637 14.6711V20.9549H8.37374V27.2386H10.4637V29.3286H14.6575V27.2386H16.7612V20.9549H14.6575V25.1486H12.5675V20.9549H14.6575V18.8511H12.5675V14.6711H33.5225V12.5674H4.17999V14.6711H10.4637Z" fill="#E5FFB8"/>
<path d="M6.28374 31.4326H4.17999V35.6264H6.28374V31.4326Z" fill="#E5FFB8"/>
<path d="M4.18003 14.6711H2.09003V31.4324H4.18003V14.6711Z" fill="#E5FFB8"/>
<path d="M2.09 39.8062H0V41.9099H2.09V39.8062Z" fill="#E5FFB8"/>
</g>
<defs>
<clipPath id="clip0_37_4">
<rect width="44" height="44" fill="white"/>
</clipPath>
</defs>
</svg>
